<svg width="132" height="103" viewBox="0 0 132 103" fill="none" xmlns="http://www.w3.org/2000/svg">
<path d="M66 0.3125C47.4833 0.3125 32.6563 8.72187 21.8625 18.7309C11.1375 28.6484 3.96459 40.5312 0.572925 48.6893C-0.183325 50.4945 -0.183325 52.5055 0.572925 54.3107C3.96459 62.4687 11.1375 74.3516 21.8625 84.2691C32.6563 94.2781 47.4833 102.688 66 102.688C84.5167 102.688 99.3438 94.2781 110.138 84.2691C120.863 74.3287 128.035 62.4687 131.45 54.3107C132.206 52.5055 132.206 50.4945 131.45 48.6893C128.035 40.5312 120.863 28.6484 110.138 18.7309C99.3438 8.72187 84.5167 0.3125 66 0.3125ZM33 51.5C33 42.7727 36.4768 34.4029 42.6655 28.2318C48.8542 22.0606 57.2479 18.5938 66 18.5938C74.7522 18.5938 83.1458 22.0606 89.3345 28.2318C95.5232 34.4029 99 42.7727 99 51.5C99 60.2273 95.5232 68.5971 89.3345 74.7682C83.1458 80.9393 74.7522 84.4062 66 84.4062C57.2479 84.4062 48.8542 80.9393 42.6655 74.7682C36.4768 68.5971 33 60.2273 33 51.5ZM66 36.875C66 44.9416 59.4229 51.5 51.3333 51.5C49.7063 51.5 48.1479 51.2258 46.6813 50.7459C45.4208 50.3346 43.9542 51.1115 44 52.4369C44.0688 54.0137 44.2979 55.5904 44.7333 57.1672C47.8729 68.8672 59.95 75.8141 71.6833 72.6834C83.4167 69.5527 90.3833 57.51 87.2438 45.81C84.7 36.3266 76.2896 29.951 66.9396 29.5625C65.6104 29.5168 64.8313 30.9564 65.2438 32.2361C65.725 33.6986 66 35.2525 66 36.875Z" fill="white"/>
</svg>
