<svg width="82" height="82" viewBox="0 0 82 82" fill="none" xmlns="http://www.w3.org/2000/svg">
<path d="M75.5297 3.47538C72.0223 -0.0320375 66.3527 -0.0320375 62.8453 3.47538L58.0246 8.28007L73.7039 23.9594L78.5246 19.1387C82.032 15.6312 82.032 9.96171 78.5246 6.45429L75.5297 3.47538ZM27.6109 38.7098C26.634 39.6867 25.8812 40.8879 25.4488 42.2172L20.7082 56.4391C20.2438 57.8164 20.6121 59.3379 21.6371 60.3789C22.6621 61.4199 24.1836 61.7723 25.577 61.3078L39.7988 56.5672C41.1121 56.1348 42.3133 55.382 43.3062 54.4051L70.1004 27.5949L54.4051 11.8996L27.6109 38.7098ZM15.375 10.25C6.88672 10.25 0 17.1367 0 25.625V66.625C0 75.1133 6.88672 82 15.375 82H56.375C64.8633 82 71.75 75.1133 71.75 66.625V51.25C71.75 48.4152 69.4598 46.125 66.625 46.125C63.7902 46.125 61.5 48.4152 61.5 51.25V66.625C61.5 69.4598 59.2098 71.75 56.375 71.75H15.375C12.5402 71.75 10.25 69.4598 10.25 66.625V25.625C10.25 22.7902 12.5402 20.5 15.375 20.5H30.75C33.5848 20.5 35.875 18.2098 35.875 15.375C35.875 12.5402 33.5848 10.25 30.75 10.25H15.375Z" fill="white"/>
</svg>
