<svg width="65" height="74" viewBox="0 0 65 74" fill="none" xmlns="http://www.w3.org/2000/svg">
<path d="M19.6161 2.5582L18.5714 4.625H4.64286C2.07478 4.625 0 6.6918 0 9.25C0 11.8082 2.07478 13.875 4.64286 13.875H60.3571C62.9252 13.875 65 11.8082 65 9.25C65 6.6918 62.9252 4.625 60.3571 4.625H46.4286L45.3839 2.5582C44.6004 0.982813 42.99 0 41.2344 0H23.7656C22.01 0 20.3996 0.982813 19.6161 2.5582ZM60.3571 18.5H4.64286L7.71875 67.4961C7.95089 71.1527 10.9978 74 14.6685 74H50.3315C54.0022 74 57.0491 71.1527 57.2812 67.4961L60.3571 18.5Z" fill="white"/>
</svg>
